<?xml version="1.0" encoding="UTF-8"?>
<svg width="429px" height="47px" viewBox="0 0 429 47" version="1.1" xmlns="http://www.w3.org/2000/svg" xmlns:xlink="http://www.w3.org/1999/xlink">
    <!-- Generator: Sketch 53.2 (72643) - https://sketchapp.com -->
    <title>logo</title>
    <desc>Created with Sketch.</desc>
    <g id="Page-1" stroke="none" stroke-width="1" fill="none" fill-rule="evenodd">
        <g id="logo" fill-rule="nonzero">
            <path d="M5.31,1.29 C5.54798808,1.31360192 5.78081017,1.37433811 6,1.47 C6.20961951,1.5770897 6.40180109,1.71532557 6.57,1.88 C6.79549266,2.09236077 7.00287832,2.32316095 7.19,2.57 L30.73,32.57 C30.65,31.85 30.59,31.14 30.56,30.44 C30.53,29.74 30.51,29.11 30.51,28.51 L30.51,1.24 L37.86,1.23984882 L37.86,46.08 L33.52,46.08 C32.9569869,46.101178 32.3964378,45.9952206 31.88,45.77 C31.3731954,45.5035952 30.9376804,45.1195189 30.61,44.65 L7.16,14.79 C7.22,15.45 7.27,16.11 7.3,16.79 C7.33,17.47 7.3,18.04 7.3,18.58 L7.3,46.08 L0,46.08 L0,1.23984882 L4.37,1.24 C4.68404643,1.238062 4.99793123,1.254758 5.31,1.29" id="Path" fill="#015BB3"></path>
            <path d="M58.18,13.77 C60.386938,13.738218 62.5796117,14.1285546 64.64,14.92 C66.5215884,15.6299829 68.2272794,16.7386821 69.64,18.17 C71.0449822,19.6462522 72.1248746,21.4006514 72.81,23.32 C73.5754245,25.5007006 73.9511534,27.7990783 73.92,30.11 C73.9536389,32.4308977 73.5778895,34.7395563 72.81,36.93 C72.1203433,38.8590425 71.0413249,40.6256373 69.64,42.12 C68.231444,43.5636311 66.5251847,44.6829371 64.64,45.4 C60.4628654,46.9329325 55.8771346,46.9329325 51.7,45.4 C49.8152542,44.6820776 48.1091696,43.5628861 46.7,42.12 C45.2860654,40.6297817 44.1964662,38.862588 43.5,36.93 C42.7203701,34.742055 42.3376975,32.4324734 42.37,30.11 C42.3402012,27.7975015 42.7228528,25.4982056 43.5,23.32 C44.1918234,21.3970085 45.2823275,19.6419785 46.7,18.17 C48.1139198,16.7401531 49.8192692,15.6316761 51.7,14.92 C53.767376,14.1286563 55.966571,13.738367 58.18,13.77 M58.18,40.65 C60.4625309,40.8207477 62.6760776,39.8231459 64.06,38 C65.3533333,36.2133333 66,33.6066667 66,30.18 C66,26.74 65.37,24.13 64.1,22.33 C62.7295815,20.4850541 60.5124434,19.4669805 58.22,19.63 C55.53,19.63 53.55,20.53 52.22,22.35 C50.89,24.17 50.29,26.77 50.29,30.18 C50.29,33.59 50.93,36.18 52.22,37.97 C53.51,39.76 55.48,40.65 58.22,40.65" id="Shape" fill="#015BB3"></path>
            <path d="M78,46.08 L78,14.27 L82.5,14.27 C83.0838144,14.2102416 83.6696085,14.3629031 84.15,14.7 C84.510792,15.1166022 84.725066,15.6399929 84.76,16.19 L85.22,20 C86.2212149,18.1898776 87.5825126,16.6039658 89.22,15.34 C90.6978454,14.2187091 92.5049624,13.6175086 94.36,13.63 C95.7479083,13.5795298 97.1173626,13.9603219 98.28,14.72 L97.28,20.46 C97.2496561,20.7661547 97.1028834,21.0489606 96.87,21.25 C96.6230976,21.417359 96.3277201,21.4982362 96.03,21.48 C95.598948,21.4617664 95.1720687,21.3878188 94.76,21.26 C94.057949,21.1026844 93.3392394,21.0321568 92.62,21.05 C91.1463186,21.0127249 89.7038537,21.4782637 88.53,22.37 C87.2727204,23.4038272 86.281679,24.7240726 85.64,26.22 L85.64,46.08 L78,46.08 Z" id="Path" fill="#015BB3"></path>
            <path d="M113.78,46.58 C111.428129,46.7298818 109.122237,45.8801514 107.43,44.24 C105.860109,42.4626617 105.055125,40.1375508 105.19,37.77 L105.19,20 L102,20 C101.574025,20.0232711 101.159417,19.8577752 100.866553,19.5475707 C100.57369,19.2373662 100.432291,18.8139338 100.48,18.39 L100.48,15.39 L105.59,14.55 L107.21,5.87 C107.25838,5.47377218 107.463721,5.11352501 107.78,4.87 C108.107408,4.63219836 108.50573,4.51234914 108.91,4.53 L112.91,4.53 L112.91,14.53 L121.28,14.53 L121.28,20 L112.91,20 L112.91,37.24 C112.85715,38.0834658 113.12505,38.9157401 113.66,39.57 C114.164138,40.1397128 114.900252,40.4488807 115.66,40.41 C116.063369,40.4200495 116.46558,40.3625908 116.85,40.24 C117.13604,40.1346133 117.416417,40.0144517 117.69,39.88 C117.909222,39.7707825 118.122824,39.6506314 118.33,39.52 C118.497242,39.412394 118.691162,39.3535251 118.89,39.35 C119.087208,39.3434022 119.280911,39.403274 119.44,39.52 C119.618129,39.6726546 119.776069,39.8473967 119.91,40.04 L122.21,43.75 C121.072659,44.6943329 119.766119,45.4137782 118.36,45.87 C116.906742,46.3421348 115.388027,46.5817541 113.86,46.58" id="Path" fill="#015BB3"></path>
            <path d="M125.47,46.08 L125.47,0 L133.13,0 L133.13,17.71 C134.336058,16.5521469 135.716138,15.5904775 137.22,14.86 C138.860011,14.0997718 140.65287,13.7268299 142.46,13.77 C144.048795,13.737216 145.626589,14.0405067 147.09,14.66 C148.386642,15.2111871 149.537047,16.0568712 150.45,17.13 C151.385816,18.269558 152.082963,19.5856366 152.5,21 C152.978794,22.5819031 153.214813,24.2272927 153.2,25.88 L153.2,46.08 L145.54,46.08 L145.54,25.83 C145.64134,24.2138805 145.162633,22.6146421 144.19,21.32 C143.155339,20.1959322 141.663545,19.6065816 140.14,19.72 C138.845445,19.7145945 137.568916,20.0234323 136.42,20.62 C135.205189,21.2647105 134.095775,22.0908699 133.13,23.07 L133.13,46.07 L125.47,46.08 Z" id="Path" fill="#015BB3"></path>
            <path d="M172,13.77 C173.889065,13.7613353 175.763603,14.1003115 177.53,14.77 C179.169516,15.3801959 180.657082,16.3389252 181.89,17.58 C183.146336,18.8721346 184.120282,20.4113773 184.75,22.1 C185.45321,24.0655523 185.792086,26.142866 185.75,28.23 C185.754132,28.7112164 185.727411,29.1922027 185.67,29.67 C185.637334,29.9856122 185.54215,30.2915608 185.39,30.57 C185.268814,30.7813343 185.077913,30.9439534 184.85,31.03 C184.57342,31.1393633 184.277234,31.1904297 183.98,31.18 L164.36,31.18 C164.586667,34.44 165.463333,36.8366667 166.99,38.37 C168.615201,39.9384798 170.81359,40.770107 173.07,40.67 C174.156359,40.6909472 175.239348,40.5425001 176.28,40.23 C177.093435,39.9637506 177.882911,39.6292267 178.64,39.23 C179.306667,38.8833333 179.896667,38.55 180.41,38.23 C180.853572,37.958382 181.360142,37.8067555 181.88,37.79 C182.161436,37.7865 182.439476,37.8517193 182.69,37.98 C182.921849,38.1092551 183.120423,38.290711 183.27,38.51 L185.51,41.3 C184.687787,42.2658026 183.727422,43.1048579 182.66,43.79 C181.624252,44.4557354 180.513146,44.9961824 179.35,45.4 C178.214908,45.8025884 177.042411,46.0906877 175.85,46.26 C174.703518,46.4202673 173.547613,46.5037865 172.39,46.51 C170.282046,46.5287445 168.189251,46.152245 166.22,45.4 C164.33565,44.695483 162.628847,43.5860608 161.22,42.15 C159.756263,40.6223424 158.625728,38.8073555 157.9,36.82 C157.050757,34.4576376 156.640679,31.9598879 156.69,29.45 C156.675585,27.3639793 157.031086,25.2919202 157.74,23.33 C158.400942,21.4820198 159.420461,19.7828219 160.74,18.33 C162.088444,16.8878269 163.72339,15.743365 165.54,14.97 C167.585707,14.1225952 169.786439,13.7137905 172,13.77 M172.15,19.26 C170.220477,19.1407825 168.327558,19.8248394 166.92,21.15 C165.552965,22.6277274 164.700543,24.5079674 164.49,26.51 L178.9,26.51 C178.907434,25.5619155 178.7726,24.6180797 178.5,23.71 C178.249434,22.8631201 177.827355,22.0768286 177.26,21.4 C176.684467,20.7238125 175.963028,20.187007 175.15,19.83 C174.201987,19.4285779 173.179177,19.234244 172.15,19.26" id="Shape" fill="#015BB3"></path>
            <path d="M190.16,46.08 L190.16,14.27 L194.66,14.27 C195.240704,14.2099652 195.823459,14.3627607 196.3,14.7 C196.668337,15.1128169 196.886764,15.6377451 196.92,16.19 L197.38,20.04 C198.381913,18.230363 199.743098,16.6445825 201.38,15.38 C202.856418,14.2560042 204.664485,13.6544879 206.52,13.67 C207.904844,13.6189678 209.27128,13.9998923 210.43,14.76 L209.43,20.5 C209.410024,20.8046637 209.269716,21.0888788 209.04,21.29 C208.789385,21.4574315 208.490848,21.5382124 208.19,21.52 C207.762314,21.5009112 207.33885,21.4269731 206.93,21.3 C206.227949,21.1426844 205.509239,21.0721568 204.79,21.09 C203.313262,21.0528364 201.867672,21.5182457 200.69,22.41 C199.438889,23.4473726 198.451842,24.7668626 197.81,26.26 L197.81,46.08 L190.16,46.08 Z" id="Path" fill="#015BB3"></path>
            <path d="M213.63,46.08 L213.63,14.27 L218.32,14.27 C219.23725,14.180485 220.084151,14.7690813 220.32,15.66 L220.85,18.17 C221.470825,17.5209423 222.139359,16.9192617 222.85,16.37 C223.553973,15.8469368 224.303675,15.3884137 225.09,15 C225.90636,14.6036915 226.765238,14.3017419 227.65,14.1 C228.634928,13.8827359 229.641457,13.7787279 230.65,13.79 C232.235567,13.7571189 233.810119,14.0604416 235.27,14.68 C236.569522,15.2311302 237.723195,16.0767012 238.64,17.15 C239.548012,18.2816327 240.227287,19.5790485 240.64,20.97 C241.115258,22.5524575 241.347901,24.1978131 241.33,25.85 L241.33,46.08 L233.7,46.08 L233.7,25.83 C233.80134,24.2138805 233.322633,22.6146421 232.35,21.32 C231.326591,20.2101423 229.856509,19.6221093 228.35,19.72 C227.055445,19.7145945 225.778916,20.0234323 224.63,20.62 C223.415189,21.2647105 222.305775,22.0908699 221.34,23.07 L221.34,46.07 L213.63,46.08 Z" id="Path" fill="#015BB3"></path>
            <polygon id="Path" fill="#63656A" points="295.41 46.08 287.01 46.08 287.01 26.49 265.98 26.49 265.98 46.08 257.58 46.08 257.58 1.24 265.98 1.24 265.98 20.53 287.01 20.53 287.01 1.24 295.41 1.24"></polygon>
            <path d="M315.32,13.77 C317.212167,13.7630524 319.089674,14.1019526 320.86,14.77 C322.497114,15.3849828 323.983715,16.3430904 325.22,17.58 C326.470232,18.8750315 327.440381,20.4136528 328.07,22.1 C328.77321,24.0655523 329.112086,26.142866 329.07,28.23 C329.074132,28.7112164 329.047411,29.1922027 328.99,29.67 C328.957334,29.9856122 328.86215,30.2915608 328.71,30.57 C328.588814,30.7813343 328.397913,30.9439534 328.17,31.03 C327.89342,31.1393633 327.597234,31.1904297 327.3,31.18 L307.66,31.18 C307.886667,34.44 308.763333,36.8366667 310.29,38.37 C311.915201,39.9384798 314.11359,40.770107 316.37,40.67 C317.456311,40.6901359 318.539175,40.5417059 319.58,40.23 C320.393435,39.9637506 321.182911,39.6292267 321.94,39.23 C322.606667,38.8833333 323.196667,38.55 323.71,38.23 C324.153572,37.958382 324.660142,37.8067555 325.18,37.79 C325.466506,37.7910195 325.748273,37.8631793 326,38 C326.232855,38.1316777 326.434199,38.3125453 326.59,38.53 L328.82,41.32 C328.010733,42.2929073 327.060166,43.1389789 326,43.83 C324.964252,44.4957354 323.853146,45.0361824 322.69,45.44 C321.555257,45.8437534 320.382642,46.1318818 319.19,46.3 C318.043518,46.4602673 316.887613,46.5437865 315.73,46.55 C313.622046,46.5687445 311.529251,46.192245 309.56,45.44 C307.677547,44.7317258 305.97151,43.6228017 304.56,42.19 C303.099396,40.6617781 301.972242,38.8467546 301.25,36.86 C300.387138,34.5001812 299.963491,32.0023578 300,29.49 C299.983862,27.4029724 300.342901,25.330029 301.06,23.37 C301.716344,21.519848 302.736381,19.8197871 304.06,18.37 C305.423948,16.9161928 307.080274,15.7676706 308.92,15 C310.943252,14.1440058 313.123458,13.7215909 315.32,13.76 M315.47,19.25 C313.540477,19.1307825 311.647558,19.8148394 310.24,21.14 C308.872965,22.6177274 308.020543,24.4979674 307.81,26.5 L322.2,26.5 C322.207434,25.5519155 322.0726,24.6080797 321.8,23.7 C321.549434,22.8531201 321.127355,22.0668286 320.56,21.39 C319.984467,20.7138125 319.263028,20.177007 318.45,19.82 C317.501987,19.4185779 316.479177,19.224244 315.45,19.25" id="Shape" fill="#63656A"></path>
            <path d="M358.39,46.08 L355,46.08 C354.416216,46.1061733 353.834313,45.9966387 353.3,45.76 C352.82346,45.4626567 352.485147,44.9875779 352.36,44.44 L351.68,42.18 C350.930912,42.8627417 350.139327,43.4973457 349.31,44.08 C348.55839,44.6194564 347.754328,45.0817924 346.91,45.46 C346.063236,45.8353574 345.177978,46.1170303 344.27,46.3 C343.248727,46.4974505 342.210124,46.5912598 341.17,46.58 C339.890447,46.5889044 338.617706,46.393098 337.4,46 C336.318078,45.6722813 335.318969,45.1164631 334.47,44.37 C333.636561,43.6227531 332.983506,42.6961663 332.56,41.66 C332.081556,40.4655019 331.850231,39.1864091 331.88,37.9 C331.887499,36.6516831 332.214555,35.426084 332.83,34.34 C333.605027,33.0401838 334.695305,31.9567852 336,31.19 C337.82062,30.1094874 339.797277,29.3168008 341.86,28.84 C344.841006,28.1621038 347.89348,27.8498044 350.95,27.91 L350.95,26 C351.086827,24.299531 350.607681,22.6065516 349.6,21.23 C348.59123,20.1525959 347.152809,19.5838326 345.68,19.68 C344.626143,19.6538299 343.575236,19.8025113 342.57,20.12 C341.821162,20.379278 341.100758,20.7143494 340.42,21.12 L338.73,22.12 C338.211287,22.4121255 337.625304,22.5637917 337.03,22.56 C336.550783,22.5715885 336.080687,22.4277533 335.69,22.15 C335.326954,21.8822574 335.023818,21.541655 334.8,21.15 L333.4,18.7 C337.000323,15.3832924 341.746022,13.5911101 346.64,13.7 C348.351371,13.6698091 350.051461,13.9826256 351.64,14.62 C353.040931,15.1920553 354.302702,16.0582439 355.34,17.16 C356.352293,18.268822 357.122036,19.5767035 357.6,21 C358.144686,22.6098775 358.411823,24.3006141 358.39,26 L358.39,46.08 Z M343.51,41.31 C344.238657,41.3154143 344.965902,41.2450358 345.68,41.1 C346.329433,40.9558384 346.960212,40.7377498 347.56,40.45 C348.16193,40.1606016 348.731734,39.8086636 349.26,39.4 C349.847709,38.9466307 350.402441,38.4520505 350.92,37.92 L350.92,32.59 C349.044515,32.5617616 347.170292,32.7023283 345.32,33.01 C344.077223,33.2218494 342.864934,33.5845286 341.71,34.09 C340.937955,34.417012 340.267938,34.9454274 339.77,35.62 C339.396215,36.1867177 339.197939,36.8511188 339.2,37.53 C339.095586,38.6335478 339.540533,39.7178727 340.39,40.43 C341.309364,41.0489378 342.402717,41.3573195 343.51,41.31 L343.51,41.31 Z" id="Shape" fill="#63656A"></path>
            <rect id="Rectangle" fill="#63656A" x="364.56" y="0" width="7.66" height="46.08"></rect>
            <path d="M389.47,46.58 C387.115099,46.7302314 384.805991,45.8806539 383.11,44.24 C381.540109,42.4626617 380.735125,40.1375508 380.87,37.77 L380.87,20 L377.65,20 C377.225019,20.019783 376.812549,19.8532103 376.520488,19.543856 C376.228427,19.2345017 376.08583,18.8131417 376.13,18.39 L376.13,15.39 L381.25,14.55 L382.86,5.87 C382.916551,5.47652621 383.120254,5.1191524 383.43,4.87 C383.761187,4.63216884 384.162643,4.51243632 384.57,4.53 L388.57,4.53 L388.57,14.53 L396.93,14.53 L396.93,20 L388.57,20 L388.57,37.24 C388.518289,38.0816717 388.782126,38.9124025 389.31,39.57 C389.816723,40.1360966 390.551025,40.4445034 391.31,40.41 C391.713281,40.4185789 392.115252,40.3611545 392.5,40.24 C392.78604,40.1346133 393.066417,40.0144517 393.34,39.88 C393.557211,39.773084 393.767611,39.6528551 393.97,39.52 C394.138499,39.4151399 394.331644,39.3565067 394.53,39.35 C394.730493,39.3419187 394.927834,39.4018258 395.09,39.52 C395.267239,39.6706192 395.422127,39.8457101 395.55,40.04 L397.85,43.75 C396.714048,44.6963701 395.407098,45.4160415 394,45.87 C392.550206,46.3422392 391.034765,46.5818745 389.51,46.58" id="Path" fill="#63656A"></path>
            <path d="M401.16,46.08 L401.16,0 L408.82,0 L408.82,17.71 C410.026058,16.5521469 411.406138,15.5904775 412.91,14.86 C414.549671,14.0987447 416.342772,13.7257524 418.15,13.77 C419.738795,13.737216 421.316589,14.0405067 422.78,14.66 C424.075012,15.2140451 425.224806,16.0592804 426.14,17.13 C427.055291,18.256856 427.73536,19.5557878 428.14,20.95 C428.624043,22.5307348 428.860179,24.1769383 428.84,25.83 L428.84,46.08 L421.18,46.08 L421.18,25.83 C421.28134,24.2138805 420.802633,22.6146421 419.83,21.32 C418.795339,20.1959322 417.303545,19.6065816 415.78,19.72 C414.485445,19.7145945 413.208916,20.0234323 412.06,20.62 C410.848389,21.2650396 409.742322,22.0912182 408.78,23.07 L408.78,46.07 L401.16,46.08 Z" id="Path" fill="#63656A"></path>
        </g>
    </g>
</svg>