<svg xmlns="http://www.w3.org/2000/svg" xmlns:xlink="http://www.w3.org/1999/xlink" width="367.914" height="152.858" viewBox="0 0 367.914 152.858">
  <defs>
    <linearGradient id="linear-gradient" x1="0.5" y1="1" x2="0.5" gradientUnits="objectBoundingBox">
      <stop offset="0" stop-color="gray" stop-opacity="0.251"/>
      <stop offset="0.54" stop-color="gray" stop-opacity="0.122"/>
      <stop offset="1" stop-color="gray" stop-opacity="0.102"/>
    </linearGradient>
  </defs>
  <g id="Group_79" data-name="Group 79" transform="translate(-3.316 -325.431)">
    <g id="Group_76" data-name="Group 76" transform="translate(27 73)">
      <ellipse id="Ellipse_30" data-name="Ellipse 30" cx="130.276" cy="9.759" rx="130.276" ry="9.759" transform="translate(32.875 376.511)" fill="#f2f2f2"/>
      <path id="Path_143" data-name="Path 143" d="M472.294,324.894c-21.226,0-36.465,15.409-36.465,51.365,0,40.749,15.24,51.536,36.465,51.536s37.373-11.814,37.373-51.536C509.667,333.8,493.52,324.894,472.294,324.894Zm.14,89.375c-14.7,0-22.382-9.76-22.382-37.984,0-24.9,7.995-38.036,22.7-38.036s22.7,8.626,22.7,38.036c0,27.513-8.309,37.984-23.011,37.984Z" transform="translate(-314.137 -45.462)" fill="#2f2e41"/>
      <path id="Path_144" data-name="Path 144" d="M183.677,409.8H174.9V380.555c0-3.234-2.317-5.856-5.176-5.856h-2.056c-2.858,0-5.175,2.622-5.175,5.856V409.8H137.74a2.9,2.9,0,0,1-2.531-1.618,3.729,3.729,0,0,1-.082-3.288l26.2-56.111a6.555,6.555,0,0,0,.334-4.588,5.679,5.679,0,0,0-2.7-3.444l-1.547-.826a4.9,4.9,0,0,0-6.774,2.535L118.687,410.1a8.785,8.785,0,0,0-.829,3.744h0c0,4.386,3.142,7.941,7.018,7.941h37.618v18.491c0,3.877,2.777,7.02,6.2,7.02h0c3.426,0,6.2-3.143,6.2-7.02V421.783h8.776c2.925,0,5.3-2.683,5.3-5.993h0c0-3.31-2.371-5.993-5.3-5.993Z" transform="translate(-74.695 -55.887)" fill="#850103"/>
      <path id="Path_145" data-name="Path 145" d="M841.674,409.8H832.9V380.555c0-3.234-2.317-5.856-5.175-5.856h-2.056c-2.858,0-5.175,2.622-5.175,5.856V409.8H795.737a2.9,2.9,0,0,1-2.53-1.618,3.729,3.729,0,0,1-.082-3.288l26.2-56.111a6.555,6.555,0,0,0,.334-4.588,5.678,5.678,0,0,0-2.7-3.444l-1.547-.826a4.9,4.9,0,0,0-6.774,2.535L776.684,410.1a8.786,8.786,0,0,0-.829,3.744h0c0,4.386,3.142,7.941,7.018,7.941h37.618v18.491c0,3.877,2.777,7.02,6.2,7.02h0c3.426,0,6.2-3.143,6.2-7.02V421.783h8.776c2.925,0,5.3-2.683,5.3-5.993h0c0-3.31-2.371-5.993-5.3-5.993Z" transform="translate(-570.187 -55.887)" fill="#850103"/>
      <path id="Path_146" data-name="Path 146" d="M193.48,397.545H184.7V368.3c0-3.234-2.317-5.856-5.175-5.856h-2.056c-2.858,0-5.175,2.622-5.175,5.856v29.243H147.543a2.9,2.9,0,0,1-2.531-1.618,3.729,3.729,0,0,1-.082-3.288l26.2-56.111a6.555,6.555,0,0,0,.334-4.588,5.679,5.679,0,0,0-2.7-3.444l-1.547-.826a4.9,4.9,0,0,0-6.774,2.535L128.49,397.845a8.785,8.785,0,0,0-.829,3.744h0c0,4.386,3.142,7.941,7.018,7.941H172.3v18.491c0,3.877,2.777,7.02,6.2,7.02h0c3.426,0,6.2-3.143,6.2-7.02V409.53h8.776c2.925,0,5.3-2.683,5.3-5.993h0c0-3.309-2.371-5.992-5.3-5.993Z" transform="translate(-82.077 -47.058)" fill="none" stroke="#3f3d56" stroke-miterlimit="10" stroke-width="1"/>
      <path id="Path_147" data-name="Path 147" d="M860.053,397.545h-8.776V368.3c0-3.234-2.317-5.856-5.175-5.856h-2.056c-2.858,0-5.175,2.622-5.175,5.856v29.243H814.116a2.9,2.9,0,0,1-2.53-1.618,3.729,3.729,0,0,1-.082-3.288l26.2-56.111a6.555,6.555,0,0,0,.334-4.588,5.679,5.679,0,0,0-2.7-3.444l-1.547-.826a4.9,4.9,0,0,0-6.774,2.535l-31.953,67.639a8.785,8.785,0,0,0-.829,3.744h0c0,4.386,3.142,7.941,7.018,7.941H838.87v18.491c0,3.877,2.778,7.02,6.2,7.02h0c3.426,0,6.2-3.143,6.2-7.02V409.53h8.776c2.925,0,5.3-2.683,5.3-5.993h0c0-3.31-2.371-5.993-5.3-5.993Z" transform="translate(-584.027 -47.058)" fill="none" stroke="#3f3d56" stroke-miterlimit="10" stroke-width="1"/>
      <path id="Path_148" data-name="Path 148" d="M491.9,313.866c-21.226,0-36.465,15.409-36.465,51.365,0,40.749,15.24,51.536,36.465,51.536s37.373-11.814,37.373-51.536C529.272,322.769,513.125,313.866,491.9,313.866Zm.14,89.375c-14.7,0-22.382-9.76-22.382-37.984,0-24.9,7.995-38.036,22.7-38.036s22.7,8.626,22.7,38.036c0,27.513-8.309,37.984-23.011,37.984Z" transform="translate(-328.9 -37.516)" fill="none" stroke="#3f3d56" stroke-miterlimit="10" stroke-width="1"/>
      <ellipse id="Ellipse_35" data-name="Ellipse 35" cx="4.198" cy="6.148" rx="4.198" ry="6.148" transform="translate(144.209 315.792)" fill="#2f2e41"/>
      <ellipse id="Ellipse_36" data-name="Ellipse 36" cx="4.198" cy="6.148" rx="4.198" ry="6.148" transform="translate(167.053 315.932)" fill="#2f2e41"/>
      <path id="Path_182" data-name="Path 182" d="M576.812,529.53c0,2.778-3.428,5.03-7.656,5.03s-7.656-2.252-7.656-5.03c0-2.406,2.571-4.418,6.006-4.91a10.955,10.955,0,0,1,1.65-.12,11.123,11.123,0,0,1,2.749.335C574.775,525.559,576.812,527.39,576.812,529.53Z" transform="translate(-408.771 -189.285)" fill="#2f2e41"/>
      <ellipse id="Ellipse_37" data-name="Ellipse 37" cx="4.198" cy="6.148" rx="4.198" ry="6.148" transform="translate(145.196 314.395)" fill="none" stroke="#3f3d56" stroke-miterlimit="10" stroke-width="1"/>
      <ellipse id="Ellipse_38" data-name="Ellipse 38" cx="4.198" cy="6.148" rx="4.198" ry="6.148" transform="translate(168.041 314.534)" fill="none" stroke="#3f3d56" stroke-miterlimit="10" stroke-width="1"/>
      <ellipse id="Ellipse_39" data-name="Ellipse 39" cx="7.656" cy="5.03" rx="7.656" ry="5.03" transform="translate(153.717 333.817)" fill="none" stroke="#3f3d56" stroke-miterlimit="10" stroke-width="1"/>
      <path id="Path_183" data-name="Path 183" d="M589.691,524.894a1.485,1.485,0,0,1-.326.948,1.02,1.02,0,0,1-.785.393h-2.47A1.247,1.247,0,0,1,585,524.894a1.5,1.5,0,0,1,.2-.766,10.3,10.3,0,0,1,1.65-.128,10.473,10.473,0,0,1,2.749.358A1.579,1.579,0,0,1,589.691,524.894Z" transform="translate(-426.466 -188.925)" fill="#fff"/>
      <ellipse id="Ellipse_40" data-name="Ellipse 40" cx="1.235" cy="1.397" rx="1.235" ry="1.397" transform="translate(148.16 317.469)" fill="#fff"/>
      <ellipse id="Ellipse_41" data-name="Ellipse 41" cx="1.235" cy="1.397" rx="1.235" ry="1.397" transform="translate(171.128 317.469)" fill="#fff"/>
      <ellipse id="Ellipse_42" data-name="Ellipse 42" cx="1.235" cy="1.397" rx="1.235" ry="1.397" transform="translate(172.363 330.603)" fill="#6c63ff" opacity="0.3"/>
      <ellipse id="Ellipse_43" data-name="Ellipse 43" cx="1.235" cy="1.397" rx="1.235" ry="1.397" transform="translate(142.233 330.603)" fill="#6c63ff" opacity="0.3"/>
    </g>
    <g id="Group_75" data-name="Group 75" transform="translate(30 63)">
      <ellipse id="Ellipse_45" data-name="Ellipse 45" cx="25.639" cy="3.825" rx="25.639" ry="3.825" transform="translate(-26.684 398.816)" fill="#6c63ff" opacity="0.1"/>
      <path id="Path_212" data-name="Path 212" d="M440.069,315.5a.128.128,0,0,0-.039-.064c-.392-.359-5.392-6.926-5.392-6.926s-.263-.733-.689-1.686a1.636,1.636,0,0,0,.3-.55,1.764,1.764,0,0,0,.05-.257c0-.027.021-.049.029-.076a1.729,1.729,0,0,0-.026-1.007,1.677,1.677,0,0,1-.108.244,3.948,3.948,0,0,0-.395-.816c-.663-1.061-1.61-1.955-2.308-2.989A7.616,7.616,0,0,1,430.307,296c0,.1,0,.193,0,.288a7.8,7.8,0,0,1,.158-1.1,7.269,7.269,0,0,1,.439-1.207c.626-1.332,1.639-2.493,2.255-3.83a6.883,6.883,0,0,0,.468-1.4,7.307,7.307,0,0,0,.234-2.456,3.647,3.647,0,0,1-.066.584,7.685,7.685,0,0,0-2.418-5.3c-2.15-2.006-5.236-2.786-8.189-3.2a7.853,7.853,0,0,1-3.447-1.222,6.381,6.381,0,0,0-3.926-.7,6.673,6.673,0,0,0-4,1.835c-1.4,1.432-2.01,3.461-3.647,4.668a16.72,16.72,0,0,1-3.4,1.574,4.433,4.433,0,0,0-2.618,2.292v.039l-.016.039c-.384,1.266.358,2.554.745,3.817a14.412,14.412,0,0,1,.45,4.04c.029,1.652.055,3.307.026,4.961-.013.65-.037,1.308-.089,1.955a11.534,11.534,0,0,0-1.808.675,34.658,34.658,0,0,0-2.794,2.569l-4.313,15.3.058.061-.058.208.218-.046a21.856,21.856,0,0,0,4.4,3.436l.184,3a5.3,5.3,0,0,0,3.2,4.255c.068,1.044.282,5.281-.705,6.96a7.36,7.36,0,0,0-.931,3.979,12.578,12.578,0,0,1-.047,3.886,5.913,5.913,0,0,0-.05,2.727h0v.8c0,2.71.034,11.4,0,12.378-.05,1.161,0,18.329,0,18.329s-.245,8.581-1.029,10.9-.587,10.02-.587,10.02-.492,9.167,1.247,10.976c0,.081-.016.164-.018.244v.115c-.021.7.124,1.437.768,1.664a11,11,0,0,1,3.384,2.28,6.466,6.466,0,0,0,4.736,1.139,38.37,38.37,0,0,1,4.707-.2h0a.924.924,0,0,0,.666-1.3h0a10,10,0,0,0-1.521-2.515c.1.024.2.044.289.061l.095.017h.074a1.082,1.082,0,0,0,.121,0h.053a.973.973,0,0,0,.147,0h0a6.792,6.792,0,0,1,3.563,1.711c.439.7,1.989,1.239,3.158,1.374a24.132,24.132,0,0,0,3.918-.23,15.428,15.428,0,0,0,2.194-.371c.347-.122.421-.513.321-.953h0a2.453,2.453,0,0,0-.91-1.427,6.988,6.988,0,0,1-1.405-1.628l-.111-.164a40.21,40.21,0,0,0,2.463-3.216c.489-.535-.789-20.108-.789-20.108V378.8l1.96-9.287,1.371-4.915,1.176-7.42s2.058-8.666,1.423-9.517h0c0-.017-.526-8.94-1.079-11.083a22.58,22.58,0,0,1-.037-5.2.975.975,0,0,0,.263-1.07,2.134,2.134,0,0,0-.153-.364v-.112a19.087,19.087,0,0,1,3.544-1.119c1.96-.357,1.471-1.3,1.471-1.3s.442-.8.734-1.3.05-4.827,0-5.184c-.018-.144-.139-.941-.279-1.845.629-.415,1.447-.931,2.339-1.42C440.59,316.739,440.208,315.754,440.069,315.5Zm-25.576,61.96s-1.471,3.485-.882,4.377-.1,4.2-.1,4.2l-.492,4.915s-1.371,9.116-.881,11.259a70.891,70.891,0,0,1,.571,8.8h0a.687.687,0,0,0-.1.044l-.066.032c.226-.824.132-2.49-.992-5.843l-.095-13.85s-.174-16,1.187-17.787a12.818,12.818,0,0,0,1.842-4.827s-.295,4.382-.487,5.543A8.547,8.547,0,0,0,414.493,377.458Zm-2.739,34.425c-.013.029-.029.059-.039.086l-.074-.088a.834.834,0,0,0,.113,0Z" transform="translate(-411.595 -13.991)" fill="url(#linear-gradient)"/>
      <path id="Path_213" data-name="Path 213" d="M476.018,836.5a28.05,28.05,0,0,1-6.036.6c-1.153-.13-2.679-.672-3.113-1.381a6.573,6.573,0,0,0-3.521-1.711,2.536,2.536,0,0,1-.789-.1,10.176,10.176,0,0,1-1.316-.469,2.11,2.11,0,0,1,.029-.929,1.406,1.406,0,0,1,.058-.181,1.664,1.664,0,0,1,.884-.914l.095-.042a2.827,2.827,0,0,1,.568-.161c2.068-.369,10.6.371,10.6.371s.239.4.568.892a6.933,6.933,0,0,0,1.389,1.637,2.472,2.472,0,0,1,.9,1.437C476.433,835.982,476.36,836.378,476.018,836.5Z" transform="translate(-460.858 -433.117)" fill="#fff"/>
      <path id="Path_214" data-name="Path 214" d="M476.027,838.614a28.021,28.021,0,0,1-6.034.6c-1.153-.13-2.679-.674-3.115-1.381a6.592,6.592,0,0,0-3.518-1.711,6.442,6.442,0,0,1-2.105-.572,1.911,1.911,0,0,1,.432-1.645l1.316.868s3.521,1.014,4.173,1.955a4.359,4.359,0,0,0,3.56,1.562,35.753,35.753,0,0,0,5.615-.618C476.443,838.1,476.372,838.495,476.027,838.614Z" transform="translate(-460.868 -435.234)" opacity="0.1"/>
      <path id="Path_215" data-name="Path 215" d="M432,838.017a37.7,37.7,0,0,0-4.647.2,6.3,6.3,0,0,1-4.686-1.146,10.943,10.943,0,0,0-3.339-2.3c-.639-.23-.789-.978-.76-1.677v-.115a6.392,6.392,0,0,1,.211-1.312l10.238-.2.887,1.117.137.171.539.682s.245.3.566.733a10.233,10.233,0,0,1,1.5,2.532h0C432.974,837.851,432,838.017,432,838.017Z" transform="translate(-429.44 -433.39)" fill="#fff"/>
      <path id="Path_216" data-name="Path 216" d="M432,843.072a37.689,37.689,0,0,0-4.647.2,6.288,6.288,0,0,1-4.684-1.146,10.639,10.639,0,0,0-3.342-2.292c-.639-.23-.789-.978-.76-1.677a6.044,6.044,0,0,1,2.871,1.271c.789.943,2.2,2.53,4.21,2.63,1.621.081,5.568-.188,7.015-.3C432.977,842.906,432,843.072,432,843.072Z" transform="translate(-429.44 -438.445)" opacity="0.1"/>
      <path id="Path_217" data-name="Path 217" d="M430.758,831.663c-.118.816-.484,1.036-.747,1.085a.546.546,0,0,1-.195,0,.692.692,0,0,1-.1-.015s-9.194,1.887-11.051.359a1.239,1.239,0,0,1-.132-.127,6.391,6.391,0,0,1,.211-1.312l10.238-.2.887,1.117a1.664,1.664,0,0,1,.884-.914Z" transform="translate(-429.413 -433.375)" opacity="0.1"/>
      <path id="Path_218" data-name="Path 218" d="M477.106,832.4c-.205.21-.376.33-.484.288-.484-.181-4.452-.809-5.713-.269s-5.526.088-5.526.088,0-.469-.024-1.222a2.831,2.831,0,0,1,.568-.161c2.068-.369,10.6.371,10.6.371S476.78,831.9,477.106,832.4Z" transform="translate(-463.92 -433.049)" opacity="0.1"/>
      <path id="Path_219" data-name="Path 219" d="M445.068,571.516,443.9,578.98l-1.353,4.947-1.937,9.35v9.9s1.258,19.693.774,20.231-2.323,3.6-2.808,3.422-4.452-.809-5.713-.271-5.526.09-5.526.09-.1-7.642-.582-9.8.871-11.33.871-11.33l.484-4.944s.679-3.329.1-4.228.871-4.4.871-4.4a8.61,8.61,0,0,1-.482-3.15c.195-1.168.482-5.575.482-5.575a13.079,13.079,0,0,1-1.826,4.856c-1.345,1.8-1.174,17.894-1.174,17.894l.095,13.93c2.423,7.376,0,6.655,0,6.655s-9.194,1.889-11.051.359-1.326-11.159-1.326-11.159-.192-7.733.582-10.069,1.018-10.971,1.018-10.971-.05-17.266,0-18.432c.037-.978,0-9.729,0-12.464v-.809l1.11-2.561,13.157-1.53h6.294s9.473,2.068,10.452,2.96a.208.208,0,0,1,.053.054C447.1,562.8,445.068,571.516,445.068,571.516Z" transform="translate(-425.878 -227.449)" fill="#005cb9"/>
      <path id="Path_220" data-name="Path 220" d="M472.11,770.88s2.894,6.474,4.26,6.924S472.11,770.88,472.11,770.88Z" transform="translate(-468.894 -387.608)" opacity="0.1"/>
      <path id="Path_221" data-name="Path 221" d="M476.18,809.88s9.773.45,9.675,1.439S476.18,809.88,476.18,809.88Z" transform="translate(-471.893 -417.076)" opacity="0.1"/>
      <path id="Path_224" data-name="Path 224" d="M433.746,279.963c-1.387,1.439-1.987,3.48-3.6,4.7a16.476,16.476,0,0,1-3.365,1.581,4.332,4.332,0,0,0-2.613,2.388c-.379,1.271.353,2.569.737,3.839a14.808,14.808,0,0,1,.445,4.064c.026,1.664.055,3.329.024,4.993-.047,2.593-.279,5.306-1.76,7.5,5.349,1.581,11.038,1.8,16.648,2a18.074,18.074,0,0,0,3.234-.076q1.394-.258,2.755-.648a22.656,22.656,0,0,1,5.489-.653,9.907,9.907,0,0,0,2.41-.149,2.329,2.329,0,0,0,1.739-1.42,2.488,2.488,0,0,0-.445-1.926c-.653-1.066-1.579-1.955-2.279-3.006a7.746,7.746,0,0,1-.571-7.427c.621-1.342,1.621-2.51,2.231-3.854a7.7,7.7,0,0,0-1.763-8.622c-2.123-2.019-5.171-2.8-8.086-3.216a7.683,7.683,0,0,1-3.4-1.222,6.2,6.2,0,0,0-3.879-.7,6.514,6.514,0,0,0-3.944,1.852Z" transform="translate(-433.156 -15.227)" fill="#3f3d56"/>
      <g id="Group_72" data-name="Group 72" transform="translate(-9.441 272.766)" opacity="0.1">
        <path id="Path_225" data-name="Path 225" d="M532.122,325.03a7.616,7.616,0,0,0-.671,3.732,7.521,7.521,0,0,1,.671-2.649c.618-1.342,1.618-2.51,2.229-3.854a7.3,7.3,0,0,0,.613-3.549,7.151,7.151,0,0,1-.613,2.468C533.74,322.523,532.74,323.688,532.122,325.03Z" transform="translate(-503.165 -318.71)"/>
        <path id="Path_226" data-name="Path 226" d="M426.917,328.571c.016.958.032,1.918.034,2.876q0-1.98-.034-3.954a14.777,14.777,0,0,0-.445-4.067,19.06,19.06,0,0,1-.789-2.527c-.234,1.2.432,2.412.789,3.607A14.708,14.708,0,0,1,426.917,328.571Z" transform="translate(-425.207 -320.365)"/>
        <path id="Path_227" data-name="Path 227" d="M454.53,396.784a9.564,9.564,0,0,1-2.408.149,22.639,22.639,0,0,0-5.486.64q-1.359.387-2.755.645a17.89,17.89,0,0,1-3.237.078c-5.42-.2-10.917-.411-16.109-1.85a8.1,8.1,0,0,1-.526.929c5.349,1.579,11.038,1.8,16.646,2a17.889,17.889,0,0,0,3.236-.078q1.389-.255,2.745-.643a22.638,22.638,0,0,1,5.476-.648,9.764,9.764,0,0,0,2.408-.152,2.331,2.331,0,0,0,1.739-1.417,1.808,1.808,0,0,0-.026-1.017A2.41,2.41,0,0,1,454.53,396.784Z" transform="translate(-424.01 -376.673)"/>
      </g>
      <path id="Path_228" data-name="Path 228" d="M459.947,344.69c-.195.406-1.016,3.91-1.21,4.27s-1.258,6.11-1.355,6.432-7.007-1.349-7.007-1.349l-4.16-3.238-4.276-3.952s-.126-3.566,3.023-4.709a5.075,5.075,0,0,1,.658-.191c3.821-.853,3.436-11.643,3.436-11.643l7.841,3.145a70.594,70.594,0,0,0-1.4,7.51c.013.408.358.662.808.816a6.853,6.853,0,0,0,2.142.215S460.141,344.287,459.947,344.69Z" transform="translate(-446.661 -54.709)" fill="#fbbebe"/>
      <ellipse id="Ellipse_46" data-name="Ellipse 46" cx="7.744" cy="7.192" rx="7.744" ry="7.192" transform="translate(-1.042 268.267)" opacity="0.1"/>
      <ellipse id="Ellipse_47" data-name="Ellipse 47" cx="7.744" cy="7.192" rx="7.744" ry="7.192" transform="translate(-1.042 267.727)" fill="#fbbebe"/>
      <path id="Path_233" data-name="Path 233" d="M451.143,562.772a26.644,26.644,0,0,0-5.181,1.078c-2.894.894-25.576.015-25.892,0v-.809l1.11-2.561,13.156-1.53h6.294s9.473,2.068,10.452,2.96C451.122,562.447,451.143,562.772,451.143,562.772Z" transform="translate(-430.548 -227.471)" opacity="0.1"/>
      <path id="Path_234" data-name="Path 234" d="M459.947,380.158c-.195.406-1.016,3.91-1.21,4.269s-1.258,6.11-1.355,6.432-7.007-1.349-7.007-1.349l-4.16-3.238-4.276-3.952s-.126-3.566,3.023-4.709l7.82,8.351,3.521-8.713a6.852,6.852,0,0,0,2.142.215S460.141,379.755,459.947,380.158Z" transform="translate(-446.661 -90.177)" opacity="0.1"/>
      <path id="Path_235" data-name="Path 235" d="M431.23,385.075l-8-8.554a3.579,3.579,0,0,0-3.176-.218c-1.792.721-4.018,1.305-4.6,1.664a34.679,34.679,0,0,0-2.76,2.583l6.489,15.766L416.321,406.7s.437,5.306-.676,7.239a7.475,7.475,0,0,0-.921,4,12.915,12.915,0,0,1-.047,3.91,6.061,6.061,0,0,0-.05,2.742s22.995.9,25.9,0a26.409,26.409,0,0,1,5.181-1.078s-.526-8.994-1.052-11.152.437-10.384.437-10.384l-.629-8.813,3.773-9.042s-2.045-5.8-4.176-6.381a43.855,43.855,0,0,1-4.694-1.259,17.507,17.507,0,0,0-3.244-.765l-1.271.4Z" transform="translate(-425.109 -89.021)" fill="#005cb9"/>
      <path id="Path_304" data-name="Path 304" d="M.963.123,17.84.042a.739.739,0,0,1,.77.715l-.128,24.766a.757.757,0,0,1-.777.722L.828,26.326a.739.739,0,0,1-.77-.715L.186.846A.757.757,0,0,1,.963.123Z" transform="translate(-0.507 302.597) rotate(3.89)" opacity="0.1"/>
      <path id="Path_305" data-name="Path 305" d="M.963.123,17.84.042a.739.739,0,0,1,.77.715l-.128,24.766a.757.757,0,0,1-.777.722L.828,26.326a.739.739,0,0,1-.77-.715L.186.846A.757.757,0,0,1,.963.123Z" transform="translate(0.073 302.06) rotate(3.89)" fill="#3f3d56"/>
      <path id="Path_306" data-name="Path 306" d="M.168.115,16.219.038,16.1,22.584.051,22.661Z" transform="translate(1.134 304.11) rotate(3.89)" fill="#fff"/>
      <path id="Path_307" data-name="Path 307" d="M.026.1,13.139.032l-.018,3.4L.008,3.493Z" transform="translate(2.771 310.039) rotate(4.004)" opacity="0.1"/>
      <path id="Path_309" data-name="Path 309" d="M.013.076,10.664.025l-.009,1.77L0,1.846Z" transform="translate(2.717 319.44) rotate(3.89)" opacity="0.1"/>
      <path id="Path_310" data-name="Path 310" d="M.02.079,11.11.026,11.1,2.747.006,2.8Z" transform="translate(4.248 303.628) rotate(3.89)" fill="#3f3d56"/>
      <path id="Path_311" data-name="Path 311" d="M.02.079,11.11.026,11.1,2.747.006,2.8Z" transform="translate(4.248 303.628) rotate(3.89)" opacity="0.1"/>
      <path id="Path_236" data-name="Path 236" d="M475.983,572.56s-.1,13.31-3.873,20.952c0,0,4.552-10.071,4.552-10.475s2.516-4.631,1.842-5.89S475.983,572.56,475.983,572.56Z" transform="translate(-468.894 -237.755)" opacity="0.1"/>
      <path id="Path_237" data-name="Path 237" d="M461.531,296.772a4.729,4.729,0,0,1,.876-3.351,4.177,4.177,0,0,0,3.437,4.35.515.515,0,0,1-.166-.591,18.473,18.473,0,0,0,1.563,1.738,2.194,2.194,0,0,0,2.245.442c.976-.489.987-1.777.734-2.779a12.766,12.766,0,0,0-3.234-5.736,4.392,4.392,0,0,0-3.394-1.6,8.925,8.925,0,0,0-4.386.638,11.707,11.707,0,0,0-2.105,1.366l-3.684,2.791a3.366,3.366,0,0,0-.895.875,2.266,2.266,0,0,0-.279.916,4.835,4.835,0,0,0,2.479,4.661,3.638,3.638,0,0,1,2.35-3.421.924.924,0,0,1,.366.706l.776-1.285a1.139,1.139,0,0,1,2.01-.191,2.673,2.673,0,0,0,1.353.828l.021-1.914" transform="translate(-454.236 -23.651)" opacity="0.1"/>
      <path id="Path_238" data-name="Path 238" d="M461.56,295.671a4.73,4.73,0,0,1,.876-3.353,4.18,4.18,0,0,0,3.439,4.35.511.511,0,0,1-.166-.589,18.8,18.8,0,0,0,1.563,1.738,2.183,2.183,0,0,0,2.245.44c.976-.489.987-1.777.734-2.776a12.765,12.765,0,0,0-3.234-5.736,5.143,5.143,0,0,0-1.808-1.305,5.615,5.615,0,0,0-1.579-.3,8.923,8.923,0,0,0-4.386.635,11.854,11.854,0,0,0-2.105,1.369l-3.684,2.791a3.33,3.33,0,0,0-.895.875,2.255,2.255,0,0,0-.279.916,4.833,4.833,0,0,0,2.479,4.658,3.643,3.643,0,0,1,2.35-3.421.931.931,0,0,1,.366.706l.774-1.281a1.139,1.139,0,0,1,2.01-.191,2.69,2.69,0,0,0,1.353.829l.021-1.916" transform="translate(-454.266 -22.819)" fill="#3f3d56"/>
      <path id="Path_239" data-name="Path 239" d="M436.086,461.711c-.676-.318-11.859,1.3-11.859,1.3s-1.842-.489-6.294-1.168a5.347,5.347,0,0,1-4.736-4.722l-.487-8.092,1.5-1.222,6.436,3.91a17.942,17.942,0,0,1,0,2.334,3.1,3.1,0,0,0-.216.733.252.252,0,0,0,.216.22c.437.1,6.389,1,6.389,1s13.8-.877,17.235,3.439a3.175,3.175,0,0,1,.608,1.066C445.733,463.458,436.7,461.992,436.086,461.711Z" transform="translate(-425.124 -143.493)" fill="#fbbebe"/>
      <path id="Path_240" data-name="Path 240" d="M465.943,482.151c-.526.218-.853.374-.853.374a34.377,34.377,0,0,1-7.71-1.068,19.427,19.427,0,0,0-6.144-.767s-11.557-1.848-9.765-4.26a.252.252,0,0,0,.216.22c.437.1,6.389,1,6.389,1s13.8-.877,17.235,3.439A3.184,3.184,0,0,1,465.943,482.151Z" transform="translate(-446.178 -165.118)" opacity="0.1"/>
      <path id="Path_241" data-name="Path 241" d="M470.766,441.58s.679,4.45.726,4.812.292,4.719,0,5.215-.726,1.3-.726,1.3.484.943-1.452,1.305a20.833,20.833,0,0,0-4.21,1.437,33.821,33.821,0,0,1-7.7-1.078,19.053,19.053,0,0,0-6.147-.765s-14.67-2.339-8.375-5.193a10.243,10.243,0,0,1,10.746,1.012l7.018-.4s2.616-1.486,3.342-1.349a2.87,2.87,0,0,0,1.5-.225l.05-4.722Z" transform="translate(-446.203 -138.785)" fill="#fbbebe"/>
      <g id="Group_73" data-name="Group 73" transform="translate(-2.008 268.958)" opacity="0.1">
        <path id="Path_246" data-name="Path 246" d="M462.422,303.692a3.348,3.348,0,0,1,.013-.562,4.81,4.81,0,0,0-.81,1.845v.682c0,.4,0,.794-.013,1.19h-.037v.183a.909.909,0,0,0-.013-.188,2.817,2.817,0,0,1-1.295-.816,1.455,1.455,0,0,0-1.484-.389,1.433,1.433,0,0,0-.526.579l-.781,1.281a.922.922,0,0,0-.366-.7,3.638,3.638,0,0,0-2.35,3.421,4.921,4.921,0,0,1-2.5-3.893,4.854,4.854,0,0,0,2.5,4.431,3.643,3.643,0,0,1,2.35-3.421.931.931,0,0,1,.366.706l.774-1.281a1.139,1.139,0,0,1,2.01-.191,2.69,2.69,0,0,0,1.352.828q0-.938.021-1.872A4.782,4.782,0,0,1,462.422,303.692Z" transform="translate(-452.256 -303.13)"/>
        <path id="Path_247" data-name="Path 247" d="M487.494,311.9c.013-.166.034-.332.061-.489l.029-.674A4.6,4.6,0,0,0,487.494,311.9Z" transform="translate(-478.217 -308.88)"/>
        <path id="Path_248" data-name="Path 248" d="M507.091,320.7a2.188,2.188,0,0,1-2.244-.44,18.485,18.485,0,0,1-1.563-1.738.515.515,0,0,0,.166.591.658.658,0,0,1-.153-.037,16.508,16.508,0,0,0,1.55,1.711,2.207,2.207,0,0,0,2.245.44,1.935,1.935,0,0,0,.86-2.006A1.672,1.672,0,0,1,507.091,320.7Z" transform="translate(-489.831 -314.759)"/>
        <path id="Path_249" data-name="Path 249" d="M494.161,309.542a4.252,4.252,0,0,1-3.279-3.632,4.189,4.189,0,0,0,3.447,4.211A.513.513,0,0,1,494.161,309.542Z" transform="translate(-480.711 -305.231)"/>
      </g>
    </g>
    <g id="Group_77" data-name="Group 77" transform="translate(3 63)">
      <rect id="Rectangle_74" data-name="Rectangle 74" width="7.483" height="6.95" transform="translate(331.795 290.34)" fill="#6c63ff" opacity="0.1"/>
      <rect id="Rectangle_82" data-name="Rectangle 82" width="7.483" height="6.95" transform="translate(331.795 307.484)" fill="#6c63ff" opacity="0.1"/>
      <rect id="Rectangle_84" data-name="Rectangle 84" width="7.483" height="6.95" transform="translate(331.795 324.626)" fill="#6c63ff" opacity="0.1"/>
      <rect id="Rectangle_86" data-name="Rectangle 86" width="7.483" height="6.95" transform="translate(331.795 341.77)" fill="#6c63ff" opacity="0.1"/>
      <rect id="Rectangle_88" data-name="Rectangle 88" width="7.483" height="6.95" transform="translate(331.795 358.914)" fill="#6c63ff" opacity="0.1"/>
      <path id="Path_203" data-name="Path 203" d="M838.4,706.812V702.33h7.481v3.844Z" transform="translate(-506.605 -326.275)" fill="#6c63ff" opacity="0.1"/>
      <ellipse id="Ellipse_44" data-name="Ellipse 44" cx="25.639" cy="3.825" rx="25.639" ry="3.825" transform="translate(316.951 407.64)" fill="#6c63ff" opacity="0.1"/>
      <path id="Path_251" data-name="Path 251" d="M944.426,539.762l-.568,2.248s-4.552-2.163-5.37-4.9a3.031,3.031,0,0,1,1.371-3.781L944.1,535Z" transform="translate(-584.418 -203.113)" fill="#fff"/>
      <path id="Path_252" data-name="Path 252" d="M944.426,539.762l-.568,2.248s-4.552-2.163-5.37-4.9a3.031,3.031,0,0,1,1.371-3.781L944.1,535Z" transform="translate(-584.418 -203.113)" opacity="0.1"/>
      <path id="Path_253" data-name="Path 253" d="M835.632,845.271a34.759,34.759,0,0,1-7.1,1.618,2.713,2.713,0,0,1-2.76-1.623,4.691,4.691,0,0,1-.437-1.466l.382-3.874.2-2.06,6.149-1.486.871,2.476.082.186c.347.828,1.752,4.186,1.71,4.888a1.3,1.3,0,0,0,.429.978A2.417,2.417,0,0,0,835.632,845.271Z" transform="translate(-501.171 -432.1)" fill="#fff"/>
      <path id="Path_254" data-name="Path 254" d="M920.824,842.47a.911.911,0,0,1-.037.352s-9,1.393-10.846,0a5.137,5.137,0,0,0-3.779-1.034s-3.484.088-4.065-.978a3.943,3.943,0,0,1-.029-2.168,19.575,19.575,0,0,1,.61-2.375l.139-.1.829-.618,9.7-.266h.074c-.047,1.843,3.292,3.957,3.292,3.957C920.271,840.459,920.795,841.839,920.824,842.47Z" transform="translate(-557.62 -431.269)" fill="#fff"/>
      <path id="Path_255" data-name="Path 255" d="M920.822,852.859a.94.94,0,0,1-.039.352s-9,1.393-10.844,0a5.137,5.137,0,0,0-3.781-1.034s-3.486.088-4.068-.978a3.977,3.977,0,0,1-.029-2.17c1.342.125,3.46.435,4.292,1.178a9.832,9.832,0,0,0,4.694,2.339C912.078,852.605,918.212,852.786,920.822,852.859Z" transform="translate(-557.615 -441.658)" opacity="0.1"/>
      <path id="Path_256" data-name="Path 256" d="M836.855,871.6a34.759,34.759,0,0,1-7.1,1.618,2.713,2.713,0,0,1-2.76-1.623,6.158,6.158,0,0,0,3.342.364,31.734,31.734,0,0,1,6.052-.733A2.355,2.355,0,0,0,836.855,871.6Z" transform="translate(-502.395 -458.433)" opacity="0.1"/>
      <path id="Path_257" data-name="Path 257" d="M868.617,353.526c-3.473-1.254-7.941-5.4-6.826-7.332a4.136,4.136,0,0,0,.434-1.554,13.183,13.183,0,0,0,.031-2.2,28.13,28.13,0,0,0-.466-3.58s10.844.227,10.212,1.711a5.128,5.128,0,0,0-.163,2.036,26.292,26.292,0,0,0,.318,2.613c.187,1.107.379,1.955.379,1.955s-.666.863-1.052.909S873.6,355.322,868.617,353.526Z" transform="translate(-527.91 -56.169)" fill="#cf6f80"/>
      <path id="Path_258" data-name="Path 258" d="M834.042,838.991l-.082.083c-3.242-3.641-7.162.9-7.162.9l-.058-.1.2-2.06,6.149-1.486.871,2.476Z" transform="translate(-502.21 -432.062)" opacity="0.1"/>
      <path id="Path_259" data-name="Path 259" d="M915.533,835.506a6.608,6.608,0,0,0-3.631.992c-1.263,1.036-7.368.222-7.1,0a.806.806,0,0,0,.137-.374l.829-.618,9.7-.266C915.5,835.411,915.533,835.506,915.533,835.506Z" transform="translate(-559.722 -431.239)" opacity="0.1"/>
      <path id="Path_260" data-name="Path 260" d="M830.568,704.4a6.486,6.486,0,0,0-.4,1.254,13.344,13.344,0,0,0-.182,3.558c.1,1.711,0,13.175,0,13.175a35.083,35.083,0,0,1-3.244,4.135c-1.163,1.078,2.368,3.013,2.368,3.013.526,2.788-2.663,5.936-2.663,5.936-3.242-3.641-7.162.9-7.162.9s-2.131-3.422-2.663-4.643,2.081-2.065,3-2.564-.047-3.421-.047-3.421-.774-2.564-1.695-4.9,1.016-13.979,1.016-13.979a16.828,16.828,0,0,1,.339-2.791,4.4,4.4,0,0,0,.071-1.584c-.016-.178-.034-.325-.047-.428s-.024-.147-.024-.147l.037-.059,1.316-2.278S831.2,702.962,830.568,704.4Z" transform="translate(-494.703 -328.725)" fill="#005cb9"/>
      <path id="Path_261" data-name="Path 261" d="M907.568,740.152a6.657,6.657,0,0,0-3.631.978c-1.263,1.024-7.368.225-7.1,0s.24-1.887.24-1.887c-3.581-4.543-.526-6.386-.526-6.386s-1.6-7.148-1.887-9.8c-.2-1.85-.453-6.843-.587-9.671-.058-1.222-.092-2.065-.092-2.065l2.9-.535.376-.068,7.057-1.317s.195,1.222.326,2.221a9.094,9.094,0,0,1,.108,1.288c-.045.489,0,2.021,0,2.021l.242,4.585a4.945,4.945,0,0,0-.242,1.483c.05.587.968,8.947.968,8.947s1.6,4.99,1.053,5.35S907.568,740.152,907.568,740.152Z" transform="translate(-551.758 -336.153)" fill="#005cb9"/>
      <path id="Path_262" data-name="Path 262" d="M872.492,340.6a5.125,5.125,0,0,0-.163,2.036,9.6,9.6,0,0,1-9.583-.166,28.152,28.152,0,0,0-.466-3.58S873.124,339.117,872.492,340.6Z" transform="translate(-528.399 -56.192)" opacity="0.1"/>
      <path id="Path_263" data-name="Path 263" d="M866.583,297.953c.06,4.617-3.922,8.405-8.894,8.461s-9.05-3.643-9.109-8.26v-.2c0-4.619,4.031-8.363,9-8.363s9,3.744,9,8.363Z" transform="translate(-518.304 -18.94)" fill="#cf6f80"/>
      <path id="Path_264" data-name="Path 264" d="M868.617,371.4c-3.473-1.254-7.941-5.4-6.826-7.332a4.136,4.136,0,0,0,.434-1.554l4.755,3.632,2.942,2.241,2.237-5.286c.187,1.107.379,1.955.379,1.955s-.666.863-1.052.909S873.6,373.192,868.617,371.4Z" transform="translate(-527.91 -74.04)" opacity="0.1"/>
      <path id="Path_265" data-name="Path 265" d="M855.821,367.714l-3.971,61.953-5.178.315L833.26,394.059l2.2-42.649.466-9.011,5.963,4.548,2.942,2.241,2.3-5.443,4.281,3.465Z" transform="translate(-502.818 -54.308)" fill="#005cb9"/>
      <path id="Path_266" data-name="Path 266" d="M838.068,704.457a6.488,6.488,0,0,0-.4,1.254,40.305,40.305,0,0,1-10.867-3.15l-.071-.034.024-.393v-.205l1.316-2.278S838.7,703.023,838.068,704.457Z" transform="translate(-502.203 -328.786)" opacity="0.1"/>
      <path id="Path_267" data-name="Path 267" d="M896.922,717.372a28.646,28.646,0,0,1-2.91.31c-.058-1.222-.092-2.065-.092-2.065l2.916-.547Z" transform="translate(-551.713 -340.437)" opacity="0.1"/>
      <path id="Path_268" data-name="Path 268" d="M913.854,711.621a21.932,21.932,0,0,1-7.347.643l-.037-1.547,7.057-1.317S913.714,710.612,913.854,711.621Z" transform="translate(-560.961 -336.153)" opacity="0.1"/>
      <path id="Path_269" data-name="Path 269" d="M810.865,449.208c-10.788,1.711-20.669-3.194-20.669-3.194l.095-1.662s.245-18.84-.434-20.284-1.208-8.759-.824-9.876-1.4-17.98-1.4-17.98l-.289-6.843-10.6-4,4.736-9.172a31.737,31.737,0,0,0,1.647-3.959c.824-2.383,4.647-4.722,4.647-4.722s3.921-2.336,5.471-2.248,3.581-2.068,3.581-2.068c1.5-3.551,2.858-1.955,2.858-1.955a2.926,2.926,0,0,1-.074.525c-.526,3.9,8.51,16.215,8.639,16.435h0l.871,19.468.871,24.637Z" transform="translate(-465.367 -72.813)" opacity="0.1"/>
      <path id="Path_270" data-name="Path 270" d="M809.743,449.208c-10.788,1.711-20.672-3.194-20.672-3.194l.1-1.662s.242-18.84-.437-20.284-1.208-8.766-.821-9.893S786.5,396.2,786.5,396.2l-.292-6.843-10.6-4,4.736-9.172a32.236,32.236,0,0,0,1.647-3.957c.824-2.375,4.66-4.717,4.66-4.717s3.921-2.336,5.468-2.248,3.589-2.065,3.589-2.065c1.5-3.551,3.158-1.955,3.158-1.955,0,.171-.158.244-.074.525,1.158,3.781,8.22,16.215,8.349,16.435h0l.871,19.468.853,24.649Z" transform="translate(-464.534 -72.813)" fill="#fff"/>
      <path id="Path_271" data-name="Path 271" d="M866.448,380.48c-1.161-.45-7.307-6.968-7.307-6.968v-1.483c-.224-.489-1.555-.191-2.631.152l.463-9.011.526.406C858.649,367.354,866.322,380.263,866.448,380.48Z" transform="translate(-524.147 -74.538)" opacity="0.1"/>
      <path id="Path_272" data-name="Path 272" d="M867.551,378.3c-1.163-.452-7.31-6.968-7.31-6.968v-1.486c-.224-.489-1.552-.191-2.631.152l.455-9,.526.4C859.752,365.177,867.422,378.083,867.551,378.3Z" transform="translate(-524.958 -72.898)" fill="#fff"/>
      <path id="Path_273" data-name="Path 273" d="M826.222,562.578c.145,0,7.5-.719,7.5-.719s4.455,8.138,4.163,10.115-.821,3.732-2.613,3.421-9.644.244-9.644.244Z" transform="translate(-501.393 -224.67)" opacity="0.1"/>
      <path id="Path_274" data-name="Path 274" d="M825.112,560.369c.147,0,7.5-.719,7.5-.719s4.452,8.15,4.163,10.106-.824,3.732-2.613,3.421-9.646.244-9.646.244Z" transform="translate(-500.575 -223)" fill="#fff"/>
      <path id="Path_275" data-name="Path 275" d="M836.573,547s6.752,3.373,6.9,4.4-3.437-.45-4.21-.63a10.755,10.755,0,0,0-1.55-.225l-5.16.13Z" transform="translate(-506.492 -213.442)" fill="#cf6f80"/>
      <ellipse id="Ellipse_48" data-name="Ellipse 48" cx="0.71" cy="0.66" rx="0.71" ry="0.66" transform="translate(339.704 305.043)" opacity="0.1"/>
      <ellipse id="Ellipse_49" data-name="Ellipse 49" cx="0.71" cy="0.66" rx="0.71" ry="0.66" transform="translate(339.704 304.774)" fill="#3f3d56"/>
      <ellipse id="Ellipse_50" data-name="Ellipse 50" cx="0.71" cy="0.66" rx="0.71" ry="0.66" transform="translate(341.012 333.607)" opacity="0.1"/>
      <ellipse id="Ellipse_51" data-name="Ellipse 51" cx="0.71" cy="0.66" rx="0.71" ry="0.66" transform="translate(341.012 333.336)" fill="#3f3d56"/>
      <ellipse id="Ellipse_52" data-name="Ellipse 52" cx="0.71" cy="0.66" rx="0.71" ry="0.66" transform="translate(340.415 319.325)" opacity="0.1"/>
      <ellipse id="Ellipse_53" data-name="Ellipse 53" cx="0.71" cy="0.66" rx="0.71" ry="0.66" transform="translate(340.415 319.056)" fill="#3f3d56"/>
      <path id="Path_278" data-name="Path 278" d="M906.767,375.333l.7,1.882-3.66,3.421c.082-3.522.174-6.843.174-6.843l-1.268-7.153s1.268,0,1.56.364a2.484,2.484,0,0,0,.421.3h0l3.11,8.331Z" transform="translate(-558.19 -77.16)" opacity="0.1"/>
      <path id="Path_279" data-name="Path 279" d="M905.637,373.108l.7,1.879-3.658,3.421c.079-3.522.174-6.843.174-6.843l-1.271-7.156s1.271,0,1.56.364a2.614,2.614,0,0,0,.421.3h0l3.129,8.339Z" transform="translate(-557.358 -75.475)" fill="#fff"/>
      <path id="Path_280" data-name="Path 280" d="M866.583,297.953a7.8,7.8,0,0,1-.442,2.593.4.4,0,0,1-.284-.064,10.416,10.416,0,0,0-2.668-6.024,6.619,6.619,0,0,0-1.447-1.393,2.992,2.992,0,0,0-1.963-.516c-.789.1-1.487.6-2.284.662-1.052.081-1.995-.6-3.039-.628a3.077,3.077,0,0,0-2.234.963,5.549,5.549,0,0,0-1.2,2.06,11.3,11.3,0,0,0-.668,3.558c-.013.684-.084,1.542-.768,1.791a3.48,3.48,0,0,0-.992-2.786l-.016-.017v-.2c0-4.619,4.031-8.363,9-8.363s9,3.744,9,8.363Z" transform="translate(-518.304 -18.94)" opacity="0.1"/>
      <path id="Path_281" data-name="Path 281" d="M853.649,267.787a6.637,6.637,0,0,0-4.373-.318c-.729.2-1.416.525-2.155.689-1.579.354-3.421-.029-4.776.829A5.349,5.349,0,0,0,840.719,271l-1.053,1.86a11.612,11.612,0,0,0-1.392,3.177,3.831,3.831,0,0,0,.671,3.282c.555.655,1.381,1.068,1.987,1.686a3.5,3.5,0,0,1,.989,2.793c.684-.244.753-1.107.768-1.791a11.313,11.313,0,0,1,.668-3.558,5.547,5.547,0,0,1,1.2-2.06,3.08,3.08,0,0,1,2.234-.965c1.053.034,2,.711,3.039.628.789-.061,1.489-.56,2.284-.66a2.979,2.979,0,0,1,1.963.516,6.494,6.494,0,0,1,1.445,1.393,10.373,10.373,0,0,1,2.671,6.024c.3.2.726-.064.874-.376a8.472,8.472,0,0,1,.339-.978,3.811,3.811,0,0,1,.953-.789,3.31,3.31,0,0,0,.995-2.769,12.818,12.818,0,0,1-.037-3.011c.124-.6.4-1.173.555-1.772a2.17,2.17,0,0,0-.189-1.786,3.377,3.377,0,0,0-2.6-.978c-1.1-.088-2.079.024-2.779-.833a9.733,9.733,0,0,0-1.105-1.256C855.051,268.647,853.649,267.841,853.649,267.787Z" transform="translate(-510.632 -2.052)" fill="#512e4e"/>
      <path id="Path_282" data-name="Path 282" d="M778.148,465.769,775.4,461.05l-.871,7.283a31.451,31.451,0,0,1,.387,3.732c-.1.5,1.984,4.944,1.984,4.944s6.875,11.376,9.683,11.96l9.473-6.3-2.516-2.967s-.871-.315-1.089,0c0,0-4.673-7.464-5.155-8a2.557,2.557,0,0,1-.39-1.62s-.726-.719-.484-1.393-1.389-3.011-1.389-3.011l1.5-1.3Z" transform="translate(-463.739 -148.497)" opacity="0.1"/>
      <path id="Path_283" data-name="Path 283" d="M773.917,458.84l-.726.54-.871,7.283a31.44,31.44,0,0,1,.387,3.732c-.1.5,1.987,4.944,1.987,4.944s6.873,11.376,9.681,11.961l9.488-6.3-2.518-2.967s-.871-.315-1.089,0c0,0-4.671-7.464-5.155-8a2.53,2.53,0,0,1-.387-1.62s-.726-.719-.484-1.393-1.405-3.011-1.405-3.011l1.5-1.3Z" transform="translate(-462.11 -146.827)" fill="#fff"/>
      <path id="Path_284" data-name="Path 284" d="M934.279,562.17c.526.594.195,3.263.195,3.263l-1.452,2.231s.087,1.442.092,3.387l-2.442.709a1.543,1.543,0,0,1-1.311-.214,1.316,1.316,0,0,1-.573-1.116l.424-12.611,5.7,2.021c-.484.313.047,1.08.047,1.08S933.748,561.576,934.279,562.17Z" transform="translate(-577.406 -221.617)" opacity="0.1"/>
      <path id="Path_285" data-name="Path 285" d="M935.394,561.063c.526.591.195,3.26.195,3.26l-1.447,2.234s.087,1.439.095,3.385l-2.487.721a1.507,1.507,0,0,1-1.281-.207,1.285,1.285,0,0,1-.56-1.09l.424-12.655,5.694,2.026c-.487.313.045,1.08.045,1.08S934.863,560.469,935.394,561.063Z" transform="translate(-578.231 -220.779)" fill="#fff"/>
      <path id="Path_286" data-name="Path 286" d="M945.175,543.816s-.387,2.295-1.355,2.429-1.4,3.712-2.368,3.588-.326-3.329-.292-3.949-1.053-3.192-.242-3.776,3.389,0,3.389,0Z" transform="translate(-586.122 -209.549)" fill="#cf6f80"/>
      <path id="Path_289" data-name="Path 289" d="M834.92,822s2.542-1.484,4.21-.406S834.92,822,834.92,822Z" transform="translate(-508.238 -420.633)" opacity="0.1"/>
      <path id="Path_290" data-name="Path 290" d="M910,805.659a5.382,5.382,0,0,1,4.139,1.62C916.028,809.169,910,805.659,910,805.659Z" transform="translate(-563.562 -408.877)" opacity="0.1"/>
      <g id="Group_74" data-name="Group 74" transform="translate(327.533 270.569)" opacity="0.1">
        <path id="Path_291" data-name="Path 291" d="M870.88,304.155a3.875,3.875,0,0,0-.955.789,8.664,8.664,0,0,0-.337.978c-.147.315-.576.577-.876.376a10.406,10.406,0,0,0-2.668-6.024,6.484,6.484,0,0,0-1.445-1.391,2.986,2.986,0,0,0-1.966-.518c-.789.1-1.484.6-2.281.662-1.053.081-2-.6-3.042-.628a3.066,3.066,0,0,0-2.231.963,5.546,5.546,0,0,0-1.2,2.06,11.311,11.311,0,0,0-.668,3.558c-.016.682-.084,1.532-.763,1.786a3.137,3.137,0,0,1,0,.545c.687-.244.755-1.107.771-1.791a11.312,11.312,0,0,1,.668-3.558,5.547,5.547,0,0,1,1.2-2.06,3.077,3.077,0,0,1,2.231-.965c1.053.034,2,.711,3.042.628.789-.061,1.489-.56,2.281-.66a2.987,2.987,0,0,1,1.966.516,6.5,6.5,0,0,1,1.445,1.393,10.385,10.385,0,0,1,2.668,6.024c.3.2.729-.064.876-.376a9,9,0,0,1,.337-.978,3.826,3.826,0,0,1,.955-.789,3.31,3.31,0,0,0,.995-2.769v-.093A3.1,3.1,0,0,1,870.88,304.155Z" transform="translate(-848.688 -296.131)"/>
        <path id="Path_292" data-name="Path 292" d="M840.919,309.988c-.6-.618-1.429-1.034-1.984-1.689a3.392,3.392,0,0,1-.766-2,3.574,3.574,0,0,0,.766,2.539c.555.655,1.382,1.068,1.984,1.686a3.539,3.539,0,0,1,.995,2.18A3.506,3.506,0,0,0,840.919,309.988Z" transform="translate(-838.155 -302.136)"/>
        <path id="Path_293" data-name="Path 293" d="M926.429,289.732c-.155.6-.432,1.168-.558,1.772a5.262,5.262,0,0,0-.082,1.237,4.417,4.417,0,0,1,.082-.7c.126-.6.4-1.173.558-1.772a2.858,2.858,0,0,0,.087-1.012,3.178,3.178,0,0,1-.087.472Z" transform="translate(-902.725 -289.26)"/>
      </g>
    </g>
  </g>
</svg>
